<?xml version="1.0" standalone="no"?>
<!DOCTYPE svg PUBLIC "-//W3C//DTD SVG 20010904//EN"
 "http://www.w3.org/TR/2001/REC-SVG-20010904/DTD/svg10.dtd">
<svg version="1.0" xmlns="http://www.w3.org/2000/svg"
 width="500.000000pt" height="500.000000pt" viewBox="0 0 500.000000 500.000000"
 preserveAspectRatio="xMidYMid meet">

<g transform="translate(0.000000,500.000000) scale(0.100000,-0.100000)"
fill="#000000" stroke="none">
<path d="M2325 4554 c-223 -26 -333 -49 -500 -106 -441 -149 -839 -474 -1096
-893 -129 -212 -236 -513 -270 -765 -17 -122 -17 -458 0 -580 26 -195 95 -419
185 -606 102 -212 223 -380 401 -560 274 -275 588 -452 971 -548 113 -28 223
-43 377 -53 l107 -6 0 526 0 527 43 0 c124 0 302 47 440 117 127 63 293 205
367 313 l24 35 -44 -38 c-110 -92 -236 -162 -350 -193 -83 -23 -359 -26 -432
-5 l-48 14 0 808 0 808 38 11 c87 24 209 33 306 21 177 -21 328 -86 465 -201
77 -65 77 -63 -2 37 -159 201 -451 353 -712 372 l-90 6 -3 483 -2 482 -73 -1
c-39 -1 -85 -4 -102 -5z"/>
<path d="M2971 2876 l-105 -144 -50 15 c-28 8 -104 32 -170 54 -116 39 -139
42 -119 17 71 -93 193 -268 193 -276 0 -6 -46 -74 -101 -151 -56 -78 -100
-144 -97 -146 2 -3 69 17 149 43 215 72 185 75 259 -26 35 -48 82 -113 104
-144 23 -31 44 -57 49 -57 4 -1 7 81 7 182 l0 182 153 49 c83 27 161 54 172
59 17 9 -9 20 -150 67 l-170 57 -3 181 c-1 100 -6 182 -10 182 -4 0 -54 -65
-111 -144z"/>
</g>
</svg>
