<svg xmlns="http://www.w3.org/2000/svg" width="500" height="500" viewBox="0 0 500 500" version="1.1"><path d="M 235.500 141.098 C 223.187 143.561, 216.924 145.367, 209 148.742 C 174.677 163.362, 151.539 193.128, 145.545 230.375 C 143.197 244.971, 143.495 252.347, 147.125 269.500 C 153.423 299.252, 176.829 328.395, 204.570 341.026 C 208.382 342.762, 212.203 344.542, 213.062 344.982 C 216.004 346.489, 232.496 350.020, 240.643 350.887 C 267.901 353.788, 297.885 343.766, 320.843 324.081 C 326.323 319.383, 338.398 305.064, 337.574 304.241 C 337.322 303.988, 335.038 305.743, 332.498 308.141 C 329.959 310.538, 324.433 314.643, 320.218 317.263 C 304.570 326.989, 289.492 330.734, 270.113 329.708 C 256.583 328.992, 250.021 327.213, 237 320.731 C 215.614 310.086, 199.850 290.341, 193.304 266 C 191.314 258.601, 191.066 235.539, 192.884 227 C 195.753 213.524, 205.056 197.104, 216.049 186.111 C 241.498 160.662, 279.993 154.416, 313.137 170.358 C 317.203 172.314, 324.448 177.083, 329.237 180.957 C 334.026 184.831, 338.207 188, 338.528 188 C 339.540 188, 336.341 183.958, 328.839 175.757 C 314.881 160.497, 294.882 148.392, 275.512 143.478 C 264.650 140.723, 243.630 139.473, 235.500 141.098 M 301.901 205.546 C 298.272 210.471, 293.420 217.088, 291.120 220.250 C 288.819 223.412, 286.307 226, 285.537 226 C 284.767 226, 277.102 223.722, 268.504 220.938 C 259.906 218.154, 252.482 216.017, 252.007 216.188 C 251.532 216.360, 255.836 222.927, 261.572 230.781 C 267.307 238.636, 272 245.389, 272 245.788 C 272 246.187, 269.062 250.561, 265.471 255.507 C 254.161 271.085, 250.897 276, 251.860 276 C 252.374 276, 260.340 273.509, 269.562 270.465 C 278.784 267.420, 286.641 265.283, 287.021 265.715 C 287.402 266.147, 290.599 270.550, 294.127 275.500 C 297.655 280.450, 302.332 286.886, 304.521 289.803 L 308.500 295.105 309 276.336 L 309.500 257.568 325.451 252.314 C 334.224 249.424, 342.099 246.759, 342.951 246.391 C 343.895 245.984, 337.663 243.482, 327 239.988 L 309.500 234.254 309 215.423 L 308.500 196.591 301.901 205.546" stroke="none" fill="#d21033" fill-rule="evenodd"/><path d="M 238 24.659 C 214.616 26.268, 199.443 29.115, 179.500 35.637 C 146.580 46.403, 116.264 64.951, 91.677 89.370 C 13.691 166.824, 2.033 286.936, 63.761 377 C 88.952 413.755, 128.216 444.952, 168.704 460.383 C 180.087 464.721, 200.283 470.514, 210.706 472.432 C 231.377 476.234, 259.398 476.614, 281.500 473.391 C 374.120 459.886, 451.429 388.132, 470.457 298.014 C 475.249 275.318, 476.196 235.155, 472.481 212.226 C 465.254 167.624, 442.529 123.844, 409.203 90.319 C 388.383 69.375, 361.053 51.303, 334 40.592 C 303.274 28.427, 268.097 22.588, 238 24.659 M 221 45.575 C 186.302 50.101, 148.659 66.554, 120 89.721 C 104.257 102.446, 87.556 121.257, 75.625 139.701 C 63.997 157.676, 52.450 185.872, 48.065 207 C 42.259 234.973, 42.828 273.012, 49.441 299 C 58.840 335.939, 75.791 366.397, 101.958 393.364 C 119.741 411.690, 136.134 423.741, 158 434.562 C 184.770 447.811, 208.992 454.264, 237.241 455.673 L 249.982 456.308 250.241 403.904 L 250.500 351.500 259.500 350.701 C 287.648 348.201, 314.739 333.799, 332.110 312.100 C 335.368 308.030, 337.827 304.494, 337.574 304.241 C 337.322 303.988, 335.038 305.743, 332.498 308.141 C 321.729 318.308, 303.947 326.884, 289.166 329.040 C 279.941 330.384, 263.454 329.893, 255.250 328.028 L 250 326.834 250 246.075 L 250 165.317 253.750 164.195 C 261.006 162.026, 274.660 161.051, 283.587 162.066 C 302.399 164.203, 315.302 169.736, 331.138 182.456 C 336.989 187.155, 342.468 191, 343.315 191 C 345.242 191, 349 186.334, 349 183.943 C 349 181.751, 344.332 180.058, 337.465 179.759 C 332.738 179.554, 332.219 179.223, 324.520 171.515 C 306.597 153.570, 282.814 142.658, 256.750 140.420 L 250 139.841 250 91.920 L 250 44 240.750 44.103 C 235.662 44.159, 226.775 44.822, 221 45.575 M 301.901 205.546 C 298.272 210.471, 293.420 217.088, 291.120 220.250 C 288.819 223.412, 286.307 226, 285.537 226 C 284.767 226, 277.102 223.722, 268.504 220.938 C 259.906 218.154, 252.482 216.017, 252.007 216.188 C 251.532 216.360, 255.836 222.927, 261.572 230.781 C 267.307 238.636, 272 245.389, 272 245.788 C 272 246.187, 269.062 250.561, 265.471 255.507 C 254.161 271.085, 250.897 276, 251.860 276 C 252.374 276, 260.340 273.509, 269.562 270.465 C 278.784 267.420, 286.641 265.283, 287.021 265.715 C 287.402 266.147, 290.599 270.550, 294.127 275.500 C 297.655 280.450, 302.332 286.886, 304.521 289.803 L 308.500 295.105 309 276.336 L 309.500 257.568 325.451 252.314 C 334.224 249.424, 342.099 246.759, 342.951 246.391 C 343.895 245.984, 337.663 243.482, 327 239.988 L 309.500 234.254 309 215.423 L 308.500 196.591 301.901 205.546" stroke="none" fill="#f9faf9" fill-rule="evenodd"/><path d="M 221 45.575 C 186.302 50.101, 148.659 66.554, 120 89.721 C 104.257 102.446, 87.556 121.257, 75.625 139.701 C 63.997 157.676, 52.450 185.872, 48.065 207 C 42.259 234.973, 42.828 273.012, 49.441 299 C 58.840 335.939, 75.791 366.397, 101.958 393.364 C 119.741 411.690, 136.134 423.741, 158 434.562 C 184.773 447.812, 208.992 454.264, 237.250 455.673 L 250 456.309 250 404.200 L 250 352.091 246.750 351.587 C 244.963 351.311, 240.800 350.808, 237.500 350.471 C 231.213 349.829, 216.925 346.637, 213.500 345.109 C 195.458 337.062, 186.797 331.469, 176.088 320.950 C 161.651 306.768, 151.014 287.873, 147.125 269.500 C 143.495 252.347, 143.197 244.971, 145.545 230.375 C 150.620 198.837, 168.885 171.415, 195.500 155.376 C 201.365 151.842, 215.746 145.615, 221.579 144.085 C 228.208 142.346, 242.209 140.038, 246.250 140.018 L 250 140 250 92 L 250 44 240.750 44.103 C 235.662 44.159, 226.775 44.822, 221 45.575 M 238.664 170.053 C 228.199 175.354, 223.395 178.765, 216.049 186.111 C 205.056 197.104, 195.753 213.524, 192.884 227 C 191.066 235.539, 191.314 258.601, 193.304 266 C 197.743 282.507, 205.529 295.542, 218.094 307.502 C 224.779 313.866, 228.650 316.580, 237 320.759 C 242.775 323.649, 248.063 326.011, 248.750 326.007 C 249.740 326.001, 250 309.330, 250 246 C 250 170.460, 249.902 166.002, 248.250 166.042 C 247.287 166.065, 242.974 167.870, 238.664 170.053" stroke="none" fill="#056434" fill-rule="evenodd"/></svg>